<svg xmlns="http://www.w3.org/2000/svg" width="340" height="340" viewBox="0 0 340 340">
  <g id="Group_4" data-name="Group 4" transform="translate(-1518 -62)">
    <rect id="Rectangle_20" data-name="Rectangle 20" width="340" height="340" rx="100" transform="translate(1518 62)" fill="#fff"/>
    <path id="Union_1" data-name="Union 1" d="M-176.4-11.055a102.446,102.446,0,0,1-17.411-9.451,103.251,103.251,0,0,1-15.17-12.516,103.156,103.156,0,0,1-12.516-15.17,102.564,102.564,0,0,1-9.451-17.41A101.872,101.872,0,0,1-239-105.5a101.872,101.872,0,0,1,8.055-39.9,102.564,102.564,0,0,1,9.451-17.41,103.21,103.21,0,0,1,12.516-15.17,103.308,103.308,0,0,1,15.17-12.516,102.5,102.5,0,0,1,17.411-9.45A101.848,101.848,0,0,1-136.5-208a101.856,101.856,0,0,1,39.9,8.055,102.538,102.538,0,0,1,17.411,9.45,103.307,103.307,0,0,1,15.17,12.516,103.21,103.21,0,0,1,12.516,15.17,102.5,102.5,0,0,1,9.45,17.41A101.856,101.856,0,0,1-34-105.5a101.856,101.856,0,0,1-8.055,39.9q-.759,1.794-1.588,3.562L-2.6-39.288A16,16,0,0,1,3.64-17.537,16,16,0,0,1-18.111-11.3L-61.674-35.447q-1.154,1.233-2.347,2.425a103.25,103.25,0,0,1-15.17,12.516A102.481,102.481,0,0,1-96.6-11.055,101.856,101.856,0,0,1-136.5-3,101.848,101.848,0,0,1-176.4-11.055ZM-165-41.72a69.957,69.957,0,0,0,29,6.22,69.992,69.992,0,0,0,28.284-5.9L-115-67h-42.8Zm-28.13-22.956v0l34.1-107.98a70.218,70.218,0,0,0-19.074,10.1,70.8,70.8,0,0,0-15.024,15.229,70.195,70.195,0,0,0-9.844,19.229A70.446,70.446,0,0,0-206.5-106a70.454,70.454,0,0,0,3.533,22.1,70.226,70.226,0,0,0,9.841,19.227l0,0Zm114.869-.868A70.059,70.059,0,0,0-65.5-106a70.44,70.44,0,0,0-3.491-21.973,70.161,70.161,0,0,0-9.734-19.146,70.749,70.749,0,0,0-14.867-15.206,70.224,70.224,0,0,0-18.888-10.157ZM-151.6-94.8h30.4l-15.2-60.6Z" transform="translate(1823 337)" fill="#2c5057"/>
  </g>
</svg>
